<svg width="14" height="8" viewBox="0 0 14 8" fill="none" xmlns="http://www.w3.org/2000/svg">
<path fill-rule="evenodd" clip-rule="evenodd" d="M5.93817 0.292657C6.12569 0.105186 6.38 -0.000129223 6.64516 -0.000129223C6.91033 -0.000129223 7.16464 0.105186 7.35216 0.292657L13.0092 5.94966C13.1047 6.0419 13.1809 6.15225 13.2333 6.27425C13.2857 6.39626 13.3133 6.52748 13.3144 6.66026C13.3156 6.79304 13.2903 6.92471 13.24 7.04761C13.1897 7.17051 13.1155 7.28216 13.0216 7.37605C12.9277 7.46994 12.816 7.5442 12.6931 7.59448C12.5702 7.64476 12.4385 7.67006 12.3058 7.66891C12.173 7.66775 12.0418 7.64017 11.9198 7.58776C11.7978 7.53535 11.6874 7.45917 11.5952 7.36366L6.64516 2.41366L1.69516 7.36366C1.50656 7.54582 1.25396 7.64661 0.991764 7.64433C0.729568 7.64205 0.478754 7.53688 0.293346 7.35148C0.107939 7.16607 0.00276852 6.91526 0.000490189 6.65306C-0.00178814 6.39086 0.0990057 6.13826 0.281164 5.94966L5.93817 0.292657Z" fill="black"/>
</svg>
